<mxfile host="app.diagrams.net" modified="2021-12-30T01:48:39.047Z" agent="5.0 (Windows NT 10.0; Win64; x64) AppleWebKit/537.36 (KHTML, like Gecko) Chrome/96.0.4664.110 Safari/537.36" etag="5xxhoPOWtBn5lZWGKqCm" version="16.1.0" type="github">
  <diagram id="CWL2jb8ki4yPNJSmUnaq" name="Page-1">
    <mxGraphModel dx="1422" dy="794" grid="1" gridSize="10" guides="1" tooltips="1" connect="1" arrows="1" fold="1" page="1" pageScale="1" pageWidth="827" pageHeight="1169" math="0" shadow="0">
      <root>
        <mxCell id="0" />
        <mxCell id="1" parent="0" />
        <mxCell id="oxDBfI-I0IamP0c3UvaX-2" style="edgeStyle=orthogonalEdgeStyle;rounded=0;orthogonalLoop=1;jettySize=auto;html=1;exitX=1;exitY=0.25;exitDx=0;exitDy=0;" edge="1" parent="1" source="oxDBfI-I0IamP0c3UvaX-1" target="oxDBfI-I0IamP0c3UvaX-3">
          <mxGeometry relative="1" as="geometry">
            <mxPoint x="400" y="300" as="targetPoint" />
            <Array as="points">
              <mxPoint x="330" y="300" />
              <mxPoint x="330" y="300" />
            </Array>
          </mxGeometry>
        </mxCell>
        <mxCell id="oxDBfI-I0IamP0c3UvaX-1" value="클라이언트" style="rounded=0;whiteSpace=wrap;html=1;fillColor=#ffe6cc;strokeColor=#d79b00;" vertex="1" parent="1">
          <mxGeometry x="120" y="280" width="120" height="80" as="geometry" />
        </mxCell>
        <mxCell id="oxDBfI-I0IamP0c3UvaX-4" style="edgeStyle=orthogonalEdgeStyle;rounded=0;orthogonalLoop=1;jettySize=auto;html=1;exitX=1;exitY=0.25;exitDx=0;exitDy=0;" edge="1" parent="1" source="oxDBfI-I0IamP0c3UvaX-3">
          <mxGeometry relative="1" as="geometry">
            <mxPoint x="670" y="300" as="targetPoint" />
          </mxGeometry>
        </mxCell>
        <mxCell id="oxDBfI-I0IamP0c3UvaX-7" style="edgeStyle=orthogonalEdgeStyle;rounded=0;orthogonalLoop=1;jettySize=auto;html=1;exitX=0;exitY=0.75;exitDx=0;exitDy=0;entryX=1;entryY=0.75;entryDx=0;entryDy=0;" edge="1" parent="1" source="oxDBfI-I0IamP0c3UvaX-3" target="oxDBfI-I0IamP0c3UvaX-1">
          <mxGeometry relative="1" as="geometry" />
        </mxCell>
        <mxCell id="oxDBfI-I0IamP0c3UvaX-3" value="게이트웨이" style="rounded=0;whiteSpace=wrap;html=1;fillColor=#e1d5e7;strokeColor=#9673a6;" vertex="1" parent="1">
          <mxGeometry x="400" y="280" width="120" height="80" as="geometry" />
        </mxCell>
        <mxCell id="oxDBfI-I0IamP0c3UvaX-6" style="edgeStyle=orthogonalEdgeStyle;rounded=0;orthogonalLoop=1;jettySize=auto;html=1;exitX=0;exitY=0.75;exitDx=0;exitDy=0;entryX=1;entryY=0.75;entryDx=0;entryDy=0;" edge="1" parent="1" source="oxDBfI-I0IamP0c3UvaX-5" target="oxDBfI-I0IamP0c3UvaX-3">
          <mxGeometry relative="1" as="geometry" />
        </mxCell>
        <mxCell id="oxDBfI-I0IamP0c3UvaX-5" value="HTTP 이외의 서버" style="rounded=0;whiteSpace=wrap;html=1;fillColor=#fff2cc;strokeColor=#d6b656;" vertex="1" parent="1">
          <mxGeometry x="670" y="280" width="120" height="80" as="geometry" />
        </mxCell>
        <mxCell id="oxDBfI-I0IamP0c3UvaX-8" value="HTTP 리퀘스트" style="text;html=1;align=center;verticalAlign=middle;resizable=0;points=[];autosize=1;strokeColor=none;fillColor=none;" vertex="1" parent="1">
          <mxGeometry x="270" y="280" width="100" height="20" as="geometry" />
        </mxCell>
        <mxCell id="oxDBfI-I0IamP0c3UvaX-9" value="HTTP 리스폰스" style="text;html=1;align=center;verticalAlign=middle;resizable=0;points=[];autosize=1;strokeColor=none;fillColor=none;" vertex="1" parent="1">
          <mxGeometry x="270" y="340" width="100" height="20" as="geometry" />
        </mxCell>
        <mxCell id="oxDBfI-I0IamP0c3UvaX-10" value="HTTP 프로토콜 이외의 통신" style="text;html=1;align=center;verticalAlign=middle;resizable=0;points=[];autosize=1;strokeColor=none;fillColor=none;" vertex="1" parent="1">
          <mxGeometry x="520" y="240" width="160" height="20" as="geometry" />
        </mxCell>
        <mxCell id="oxDBfI-I0IamP0c3UvaX-11" value="" style="endArrow=classic;html=1;rounded=0;exitX=0.513;exitY=1.05;exitDx=0;exitDy=0;exitPerimeter=0;" edge="1" parent="1" source="oxDBfI-I0IamP0c3UvaX-10">
          <mxGeometry width="50" height="50" relative="1" as="geometry">
            <mxPoint x="390" y="430" as="sourcePoint" />
            <mxPoint x="602" y="300" as="targetPoint" />
          </mxGeometry>
        </mxCell>
      </root>
    </mxGraphModel>
  </diagram>
</mxfile>
